<svg width="15" height="15" viewBox="0 0 15 15" fill="none" xmlns="http://www.w3.org/2000/svg">
<path d="M0.292895 0.293076C0.68342 -0.097448 1.31658 -0.097448 1.70711 0.293076L13.7279 12.3139C14.1184 12.7044 14.1184 13.3376 13.7279 13.7281C13.3374 14.1186 12.7042 14.1186 12.3137 13.7281L0.292895 1.70729C-0.0976291 1.31677 -0.0976288 0.683601 0.292895 0.293076Z" fill="#28292D"/>
<path d="M13.7279 0.292893C13.3374 -0.0976311 12.7042 -0.0976311 12.3137 0.292893L0.292893 12.3137C-0.0976312 12.7042 -0.0976309 13.3374 0.292893 13.7279C0.683418 14.1184 1.31658 14.1184 1.70711 13.7279L13.7279 1.70711C14.1184 1.31658 14.1184 0.683417 13.7279 0.292893Z" fill="#28292D"/>
</svg>
