<svg width="80" height="80" viewBox="0 0 80 80" fill="none" xmlns="http://www.w3.org/2000/svg">
<path d="M21.6666 80.0003C17.3814 80.0003 13.1924 78.7296 9.62929 76.3488C6.06623 73.9681 3.28916 70.5842 1.64926 66.6251C0.00935731 62.6661 -0.419715 58.3096 0.416298 54.1067C1.25231 49.9038 3.31586 46.0432 6.346 43.013C9.37614 39.9829 13.2368 37.9193 17.4397 37.0833C21.6426 36.2473 25.9991 36.6764 29.9581 38.3163C33.9172 39.9562 37.3011 42.7332 39.6818 46.2963C42.0626 49.8594 43.3333 54.0484 43.3333 58.3337C43.3333 64.08 41.0506 69.591 36.9873 73.6543C32.924 77.7176 27.413 80.0003 21.6666 80.0003ZM21.6666 40.0003C18.0407 40.0003 14.4961 41.0756 11.4812 43.0901C8.46629 45.1046 6.11646 47.9678 4.72886 51.3178C3.34125 54.6678 2.97819 58.354 3.68558 61.9103C4.39298 65.4666 6.13906 68.7333 8.70302 71.2973C11.267 73.8613 14.5337 75.6073 18.09 76.3147C21.6463 77.0221 25.3325 76.6591 28.6825 75.2715C32.0325 73.8839 34.8958 71.534 36.9103 68.5191C38.9248 65.5042 40 61.9597 40 58.3337C40 55.9261 39.5258 53.5421 38.6044 51.3178C37.6831 49.0935 36.3327 47.0724 34.6303 45.37C32.9279 43.6676 30.9068 42.3172 28.6825 41.3959C26.4582 40.4745 24.0742 40.0003 21.6666 40.0003Z" fill="url(#paint0_linear_40_964)"/>
<path d="M21.6667 73.3333C21.2246 73.3333 20.8007 73.1577 20.4882 72.8451C20.1756 72.5325 20 72.1086 20 71.6666C20 71.2246 20.1756 70.8006 20.4882 70.4881C20.8007 70.1755 21.2246 69.9999 21.6667 69.9999C24.5228 70.0226 27.2879 68.9967 29.4382 67.1168C31.5884 65.2369 32.9744 62.6335 33.3333 59.7999C33.3864 59.3579 33.6128 58.955 33.9629 58.68C34.313 58.4049 34.758 58.2802 35.2 58.3333C35.642 58.3863 36.0449 58.6128 36.3199 58.9628C36.595 59.3129 36.7197 59.7579 36.6667 60.1999C36.2094 63.8465 34.4294 67.1983 31.6643 69.6193C28.8993 72.0402 25.3417 73.3618 21.6667 73.3333Z" fill="url(#paint1_linear_40_964)"/>
<path d="M65 56.667C62.0333 56.667 59.1332 55.7873 56.6665 54.139C54.1997 52.4908 52.2771 50.1481 51.1418 47.4072C50.0065 44.6664 49.7094 41.6504 50.2882 38.7406C50.867 35.8309 52.2956 33.1582 54.3934 31.0604C56.4912 28.9626 59.1639 27.534 62.0737 26.9552C64.9834 26.3764 67.9994 26.6735 70.7403 27.8088C73.4811 28.9441 75.8238 30.8667 77.4721 33.3334C79.1203 35.8002 80 38.7003 80 41.667C80 45.6452 78.4197 49.4606 75.6066 52.2736C72.7936 55.0866 68.9783 56.667 65 56.667ZM65 30.0003C62.6926 30.0003 60.4369 30.6846 58.5184 31.9665C56.5998 33.2485 55.1044 35.0706 54.2214 37.2024C53.3384 39.3342 53.1074 41.6799 53.5575 43.9431C54.0077 46.2062 55.1188 48.285 56.7504 49.9166C58.382 51.5482 60.4608 52.6593 62.724 53.1095C64.9871 53.5597 67.3328 53.3286 69.4646 52.4456C71.5964 51.5626 73.4185 50.0672 74.7005 48.1487C75.9824 46.2301 76.6667 43.9744 76.6667 41.667C76.6667 38.5728 75.4375 35.6053 73.2496 33.4174C71.0617 31.2295 68.0942 30.0003 65 30.0003Z" fill="url(#paint2_linear_40_964)"/>
<path d="M73.3333 43.3336C72.8913 43.3336 72.4674 43.1581 72.1548 42.8455C71.8422 42.5329 71.6666 42.109 71.6666 41.667C71.6666 39.8989 70.9643 38.2032 69.714 36.9529C68.4638 35.7027 66.7681 35.0003 65 35.0003C64.558 35.0003 64.134 34.8247 63.8215 34.5122C63.5089 34.1996 63.3333 33.7757 63.3333 33.3337C63.3333 32.8916 63.5089 32.4677 63.8215 32.1551C64.134 31.8426 64.558 31.667 65 31.667C74.2 31.667 77.35 43.3336 73.3333 43.3336Z" fill="url(#paint3_linear_40_964)"/>
<path d="M40 23.3333C37.6925 23.3333 35.4369 22.6491 33.5183 21.3672C31.5998 20.0852 30.1044 18.2631 29.2214 16.1313C28.3384 13.9995 28.1073 11.6537 28.5575 9.39062C29.0077 7.12751 30.1188 5.04871 31.7504 3.41709C33.382 1.78548 35.4608 0.674338 37.7239 0.224177C39.987 -0.225984 42.3328 0.00505507 44.4646 0.888077C46.5964 1.7711 48.4185 3.26645 49.7005 5.18502C50.9824 7.10359 51.6667 9.35922 51.6667 11.6667C51.6667 14.7609 50.4375 17.7283 48.2496 19.9163C46.0616 22.1042 43.0942 23.3333 40 23.3333ZM40 3.33334C38.3518 3.33334 36.7406 3.82208 35.3702 4.73776C33.9998 5.65344 32.9317 6.95493 32.301 8.47764C31.6703 10.0004 31.5052 11.6759 31.8268 13.2924C32.1483 14.9089 32.942 16.3938 34.1074 17.5592C35.2729 18.7247 36.7577 19.5183 38.3742 19.8399C39.9907 20.1614 41.6663 19.9964 43.189 19.3657C44.7117 18.7349 46.0132 17.6668 46.9289 16.2964C47.8446 14.926 48.3333 13.3149 48.3333 11.6667C48.3333 9.45654 47.4553 7.33692 45.8925 5.77412C44.3297 4.21131 42.2101 3.33334 40 3.33334Z" fill="url(#paint4_linear_40_964)"/>
<path d="M35 13.3333C31.5 13.3333 33.65 5 40 5C40.442 5 40.8659 5.17559 41.1785 5.48816C41.4911 5.80072 41.6667 6.22464 41.6667 6.66667C41.6667 7.10869 41.4911 7.53262 41.1785 7.84518C40.8659 8.15774 40.442 8.33333 40 8.33333C39.1159 8.33333 38.2681 8.68452 37.643 9.30964C37.0178 9.93477 36.6667 10.7826 36.6667 11.6667C36.6667 12.1087 36.4911 12.5326 36.1785 12.8452C35.8659 13.1577 35.442 13.3333 35 13.3333Z" fill="url(#paint5_linear_40_964)"/>
<path d="M13.3333 29.9997C11.6852 29.9997 10.074 29.5109 8.70358 28.5953C7.33318 27.6796 6.26507 26.3781 5.63434 24.8554C5.00361 23.3327 4.83858 21.6571 5.16013 20.0406C5.48167 18.4241 6.27534 16.9392 7.44078 15.7738C8.60622 14.6084 10.0911 13.8147 11.7076 13.4931C13.3241 13.1716 14.9996 13.3366 16.5224 13.9673C18.0451 14.5981 19.3466 15.6662 20.2622 17.0366C21.1779 18.407 21.6667 20.0182 21.6667 21.6663C21.6667 23.8765 20.7887 25.9961 19.2259 27.5589C17.6631 29.1217 15.5435 29.9997 13.3333 29.9997ZM13.3333 16.6663C12.3444 16.6663 11.3777 16.9596 10.5555 17.509C9.73324 18.0584 9.09238 18.8393 8.71394 19.7529C8.3355 20.6666 8.23648 21.6719 8.42941 22.6418C8.62234 23.6117 9.09854 24.5026 9.7978 25.2019C10.4971 25.9011 11.388 26.3773 12.3579 26.5703C13.3278 26.7632 14.3331 26.6642 15.2468 26.2857C16.1604 25.9073 16.9413 25.2664 17.4907 24.4442C18.0401 23.622 18.3333 22.6553 18.3333 21.6663C18.3333 20.3403 17.8066 19.0685 16.8689 18.1308C15.9312 17.1931 14.6594 16.6663 13.3333 16.6663Z" fill="url(#paint6_linear_40_964)"/>
<defs>
<linearGradient id="paint0_linear_40_964" x1="21.6666" y1="36.667" x2="21.6666" y2="80.0003" gradientUnits="userSpaceOnUse">
<stop stop-color="#F39B14"/>
<stop offset="1" stop-color="#F36414"/>
</linearGradient>
<linearGradient id="paint1_linear_40_964" x1="28.3393" y1="58.3213" x2="28.3393" y2="73.3337" gradientUnits="userSpaceOnUse">
<stop stop-color="#F39B14"/>
<stop offset="1" stop-color="#F36414"/>
</linearGradient>
<linearGradient id="paint2_linear_40_964" x1="65" y1="26.667" x2="65" y2="56.667" gradientUnits="userSpaceOnUse">
<stop stop-color="#F39B14"/>
<stop offset="1" stop-color="#F36414"/>
</linearGradient>
<linearGradient id="paint3_linear_40_964" x1="69.1902" y1="31.667" x2="69.1902" y2="43.3336" gradientUnits="userSpaceOnUse">
<stop stop-color="#F39B14"/>
<stop offset="1" stop-color="#F36414"/>
</linearGradient>
<linearGradient id="paint4_linear_40_964" x1="40" y1="0" x2="40" y2="23.3333" gradientUnits="userSpaceOnUse">
<stop stop-color="#F39B14"/>
<stop offset="1" stop-color="#F36414"/>
</linearGradient>
<linearGradient id="paint5_linear_40_964" x1="37.4973" y1="5" x2="37.4973" y2="13.3333" gradientUnits="userSpaceOnUse">
<stop stop-color="#F39B14"/>
<stop offset="1" stop-color="#F36414"/>
</linearGradient>
<linearGradient id="paint6_linear_40_964" x1="13.3333" y1="13.333" x2="13.3333" y2="29.9997" gradientUnits="userSpaceOnUse">
<stop stop-color="#F39B14"/>
<stop offset="1" stop-color="#F36414"/>
</linearGradient>
</defs>
</svg>
