<svg width="64" height="80" viewBox="0 0 64 80" fill="none" xmlns="http://www.w3.org/2000/svg">
<path d="M31.9998 6.34277C22.3492 6.34277 14.4983 14.194 14.4983 23.8443C14.4983 27.9871 15.973 32.0064 18.6511 35.162C18.9524 35.517 19.3902 35.7136 19.8425 35.7136C19.9795 35.7136 20.1178 35.6954 20.2539 35.6582C23.3975 34.7996 27.0227 34.3643 31.0284 34.3643C31.3434 34.3643 31.658 34.3671 31.9736 34.3723C31.9909 34.3728 32.0088 34.3728 32.0261 34.3723C32.3411 34.367 32.6563 34.3643 32.9713 34.3643C36.977 34.3643 40.6019 34.7996 43.7448 35.6582C44.3298 35.8181 44.9548 35.6248 45.348 35.1621C48.0264 32.0065 49.5014 27.9871 49.5014 23.8443C49.5016 14.1939 41.6503 6.34277 31.9998 6.34277ZM43.5631 32.3857C40.3972 31.6246 36.8402 31.2393 32.9714 31.2393C32.648 31.2393 32.3238 31.2421 32 31.2473C31.6759 31.242 31.3523 31.2393 31.0286 31.2393C27.1595 31.2393 23.6025 31.6246 20.4363 32.3857C18.6163 29.9228 17.6234 26.9253 17.6234 23.8443C17.6234 15.9171 24.0727 9.46777 32 9.46777C39.9273 9.46777 46.3766 15.9171 46.3766 23.8443C46.3766 26.9253 45.3834 29.9228 43.5631 32.3857Z" fill="url(#paint0_linear_40_896)"/>
<path d="M62.9595 58.7932C62.2215 48.5336 58.6452 40.9834 52.3226 36.3223C54.6315 32.5753 55.8443 28.2935 55.8443 23.8443C55.8443 10.6966 45.1478 0 32 0C18.8521 0 8.15535 10.6966 8.15535 23.8443C8.15535 28.2937 9.36848 32.5753 11.6774 36.3223C5.3544 40.9834 1.77829 48.5336 1.04048 58.7932C0.613915 64.7276 2.01673 69.4768 5.21065 72.9086C7.73722 75.6234 11.2974 77.5003 16.0948 78.6464C19.9066 79.5572 24.5432 80 30.2687 80C30.8287 80 31.4114 79.9958 32 79.9875C32.589 79.9958 33.1712 80 33.7312 80C39.4561 80 44.0922 79.5572 47.9046 78.6462C52.7016 77.5 56.2618 75.6229 58.7887 72.9081C61.9829 69.4762 63.386 64.7273 62.9595 58.7932ZM56.5013 70.779C52.6308 74.9378 45.3953 76.8748 33.7314 76.875C33.179 76.875 32.604 76.8708 32.0223 76.8625C32.0147 76.8625 32.0073 76.8623 32 76.8623C31.9923 76.8623 31.985 76.8625 31.9776 76.8625C31.3959 76.8708 30.8211 76.875 30.2686 76.875C18.6038 76.875 11.3683 74.9381 7.49816 70.7797C4.88315 67.9696 3.79033 64.1223 4.15737 59.0174C4.86987 49.1082 8.40629 42.0561 14.6685 38.0572C15.0293 37.8269 15.2798 37.4587 15.3616 37.0386C15.443 36.6186 15.3491 36.1833 15.101 35.8345C12.6016 32.32 11.2802 28.1739 11.2802 23.8442C11.2805 12.4196 20.5751 3.12501 32 3.12501C43.4245 3.12501 52.7191 12.4196 52.7191 23.8443C52.7191 28.1739 51.398 32.3201 48.8986 35.8347C48.6508 36.1834 48.5566 36.6186 48.6383 37.0386C48.72 37.4587 48.9704 37.8267 49.3311 38.0572C55.593 42.0561 59.1298 49.1083 59.8424 59.0174C60.209 64.1218 59.1163 67.969 56.5013 70.779Z" fill="url(#paint1_linear_40_896)"/>
<path d="M55.5018 53.9584C55.4868 53.8974 55.4707 53.8361 55.4545 53.7749L55.4423 53.728C55.2232 52.8933 54.3684 52.3939 53.5343 52.6131C52.6996 52.832 52.2004 53.6863 52.4195 54.5209L52.4335 54.5741C52.4445 54.6155 52.4556 54.6569 52.4656 54.698C52.6395 55.4122 53.2785 55.8911 53.9823 55.8911C54.1046 55.8911 54.2292 55.8766 54.3534 55.8463C55.1915 55.642 55.7059 54.7969 55.5018 53.9584Z" fill="url(#paint2_linear_40_896)"/>
<path d="M56.4273 59.9235C56.3652 59.0626 55.6154 58.4146 54.7566 58.4768C53.896 58.5387 53.2485 59.2865 53.3101 60.1471C53.5201 63.069 53.0287 65.1096 51.8084 66.3854C50.7488 67.4927 48.9391 68.3613 46.4296 68.9669C45.5907 69.1694 45.0749 70.0135 45.2773 70.8524C45.4499 71.5682 46.0896 72.0488 46.7949 72.0488C46.9163 72.0488 47.0396 72.0346 47.1627 72.0049C50.2637 71.2566 52.5863 70.0929 54.0665 68.5458C55.9316 66.596 56.7041 63.7757 56.4273 59.9235Z" fill="url(#paint3_linear_40_896)"/>
<path d="M43.4919 52.866H38.1266C37.2636 52.866 36.5641 53.5655 36.5641 54.4285C36.5641 55.2914 37.2636 55.991 38.1266 55.991H41.6785C41.0919 57.6146 39.5707 58.2316 38.1266 58.2316C36.0297 58.2316 34.3238 56.1075 34.3238 53.4968C34.3238 51.3588 35.2452 49.7024 36.8519 48.9522C38.3744 48.2411 40.1988 48.535 41.6127 49.7191C42.2741 50.2728 43.2597 50.186 43.8139 49.5243C44.3679 48.8627 44.2805 47.8772 43.6189 47.3232C41.2646 45.3511 38.1646 44.8903 35.5299 46.1207C32.8179 47.3869 31.1988 50.1444 31.1988 53.4969C31.1988 57.8308 34.3064 61.3568 38.1266 61.3568C42.2055 61.3568 45.0544 58.5078 45.0544 54.4286C45.0544 53.5655 44.3549 52.866 43.4919 52.866Z" fill="url(#paint4_linear_40_896)"/>
<path d="M29.4648 59.0161L25.576 52.2438L28.9729 48.1193C29.5217 47.4532 29.426 46.4685 28.7602 45.9199C28.094 45.3714 27.1093 45.4666 26.5609 46.1327L22.2087 51.4174L22.2807 47.0369C22.2948 46.1741 21.6068 45.4632 20.7442 45.4489C19.8735 45.435 19.1704 46.1228 19.156 46.9855L19.0098 55.8597C19.0098 55.8611 19.0098 55.8627 19.0098 55.8641L18.9454 59.7685C18.9313 60.6313 19.6193 61.3422 20.482 61.3565C20.4909 61.3566 20.4996 61.3566 20.5082 61.3566C21.3593 61.3566 22.056 60.6738 22.0701 59.8199L22.1259 56.433L23.4527 54.8218L26.7548 60.5722C27.0435 61.0754 27.5699 61.3569 28.1113 61.3569C28.3751 61.3569 28.6426 61.29 28.8877 61.1491C29.636 60.7194 29.8945 59.7644 29.4648 59.0161Z" fill="url(#paint5_linear_40_896)"/>
<defs>
<linearGradient id="paint0_linear_40_896" x1="31.9998" y1="6.34277" x2="31.9998" y2="35.7136" gradientUnits="userSpaceOnUse">
<stop stop-color="#F39B14"/>
<stop offset="1" stop-color="#F36414"/>
</linearGradient>
<linearGradient id="paint1_linear_40_896" x1="32" y1="0" x2="32" y2="80" gradientUnits="userSpaceOnUse">
<stop stop-color="#F39B14"/>
<stop offset="1" stop-color="#F36414"/>
</linearGradient>
<linearGradient id="paint2_linear_40_896" x1="53.9572" y1="52.5615" x2="53.9572" y2="55.8911" gradientUnits="userSpaceOnUse">
<stop stop-color="#F39B14"/>
<stop offset="1" stop-color="#F36414"/>
</linearGradient>
<linearGradient id="paint3_linear_40_896" x1="50.8577" y1="58.4727" x2="50.8577" y2="72.0488" gradientUnits="userSpaceOnUse">
<stop stop-color="#F39B14"/>
<stop offset="1" stop-color="#F36414"/>
</linearGradient>
<linearGradient id="paint4_linear_40_896" x1="38.1266" y1="45.4404" x2="38.1266" y2="61.3568" gradientUnits="userSpaceOnUse">
<stop stop-color="#F39B14"/>
<stop offset="1" stop-color="#F36414"/>
</linearGradient>
<linearGradient id="paint5_linear_40_896" x1="24.3088" y1="45.4487" x2="24.3088" y2="61.3569" gradientUnits="userSpaceOnUse">
<stop stop-color="#F39B14"/>
<stop offset="1" stop-color="#F36414"/>
</linearGradient>
</defs>
</svg>
