<svg width="47" height="73" viewBox="0 0 47 73" fill="none" xmlns="http://www.w3.org/2000/svg">
<path d="M40.6797 44.1726V10.6934C40.6797 4.79704 35.8607 0 29.9375 0C24.0142 0 19.1953 4.79704 19.1953 10.6934V44.1726C15.5404 47.2929 13.4661 51.7646 13.4661 56.6037C13.4661 65.6447 20.8552 73.0001 29.9375 73.0001C39.0198 73.0001 46.4088 65.6447 46.4088 56.6037C46.4088 51.7646 44.3346 47.2927 40.6797 44.1726ZM29.9375 68.7227C23.2245 68.7227 17.763 63.286 17.763 56.6035C17.763 52.7558 19.5385 49.2214 22.6341 46.9066C23.1742 46.5027 23.4922 45.8692 23.4922 45.1967V10.6934C23.4922 7.15557 26.3835 4.27734 29.9375 4.27734C33.4914 4.27734 36.3828 7.15557 36.3828 10.6934V45.1967C36.3828 45.8692 36.7008 46.5027 37.2409 46.9066C40.3365 49.2214 42.112 52.7558 42.112 56.6035C42.112 63.286 36.6505 68.7227 29.9375 68.7227Z" fill="url(#paint0_linear_40_974)"/>
<path d="M32.0859 49.0606V10.6934C32.0859 9.51224 31.124 8.55469 29.9375 8.55469C28.751 8.55469 27.789 9.51224 27.789 10.6934V49.0606C24.4866 49.994 22.0599 53.021 22.0599 56.6035C22.0599 60.9275 25.5938 64.4453 29.9375 64.4453C34.2812 64.4453 37.8151 60.9275 37.8151 56.6035C37.8151 53.021 35.3884 49.9942 32.0859 49.0606ZM29.9375 60.168C27.9631 60.168 26.3568 58.569 26.3568 56.6035C26.3568 54.6381 27.9631 53.0391 29.9375 53.0391C31.9119 53.0391 33.5182 54.6381 33.5182 56.6035C33.5182 58.569 31.9119 60.168 29.9375 60.168Z" fill="url(#paint1_linear_40_974)"/>
<path d="M9.8854 40.9199H2.72394C1.53743 40.9199 0.5755 41.8775 0.5755 43.0586C0.5755 44.2397 1.53743 45.1973 2.72394 45.1973H9.8854C11.0719 45.1973 12.0338 44.2397 12.0338 43.0586C12.0338 41.8775 11.0719 40.9199 9.8854 40.9199Z" fill="url(#paint2_linear_40_974)"/>
<path d="M2.72394 36.6426H7.02081C8.20732 36.6426 9.16925 35.685 9.16925 34.5039C9.16925 33.3228 8.20732 32.3652 7.02081 32.3652H2.72394C1.53743 32.3652 0.5755 33.3228 0.5755 34.5039C0.5755 35.685 1.53743 36.6426 2.72394 36.6426Z" fill="url(#paint3_linear_40_974)"/>
<path d="M9.8854 23.8105H2.72394C1.53743 23.8105 0.5755 24.7681 0.5755 25.9492C0.5755 27.1303 1.53743 28.0879 2.72394 28.0879H9.8854C11.0719 28.0879 12.0338 27.1303 12.0338 25.9492C12.0338 24.7681 11.0719 23.8105 9.8854 23.8105Z" fill="url(#paint4_linear_40_974)"/>
<path d="M2.72394 19.5332H7.02081C8.20732 19.5332 9.16925 18.5756 9.16925 17.3945C9.16925 16.2134 8.20732 15.2559 7.02081 15.2559H2.72394C1.53743 15.2559 0.5755 16.2134 0.5755 17.3945C0.5755 18.5756 1.53743 19.5332 2.72394 19.5332Z" fill="url(#paint5_linear_40_974)"/>
<path d="M9.8854 6.70117H2.72394C1.53743 6.70117 0.5755 7.65873 0.5755 8.83984C0.5755 10.021 1.53743 10.9785 2.72394 10.9785H9.8854C11.0719 10.9785 12.0338 10.021 12.0338 8.83984C12.0338 7.65873 11.0719 6.70117 9.8854 6.70117Z" fill="url(#paint6_linear_40_974)"/>
<defs>
<linearGradient id="paint0_linear_40_974" x1="29.9375" y1="0" x2="29.9375" y2="73.0001" gradientUnits="userSpaceOnUse">
<stop stop-color="#F39B14"/>
<stop offset="1" stop-color="#F36414"/>
</linearGradient>
<linearGradient id="paint1_linear_40_974" x1="29.9375" y1="8.55469" x2="29.9375" y2="64.4453" gradientUnits="userSpaceOnUse">
<stop stop-color="#F39B14"/>
<stop offset="1" stop-color="#F36414"/>
</linearGradient>
<linearGradient id="paint2_linear_40_974" x1="6.30467" y1="40.9199" x2="6.30467" y2="45.1973" gradientUnits="userSpaceOnUse">
<stop stop-color="#F39B14"/>
<stop offset="1" stop-color="#F36414"/>
</linearGradient>
<linearGradient id="paint3_linear_40_974" x1="4.87238" y1="32.3652" x2="4.87238" y2="36.6426" gradientUnits="userSpaceOnUse">
<stop stop-color="#F39B14"/>
<stop offset="1" stop-color="#F36414"/>
</linearGradient>
<linearGradient id="paint4_linear_40_974" x1="6.30467" y1="23.8105" x2="6.30467" y2="28.0879" gradientUnits="userSpaceOnUse">
<stop stop-color="#F39B14"/>
<stop offset="1" stop-color="#F36414"/>
</linearGradient>
<linearGradient id="paint5_linear_40_974" x1="4.87238" y1="15.2559" x2="4.87238" y2="19.5332" gradientUnits="userSpaceOnUse">
<stop stop-color="#F39B14"/>
<stop offset="1" stop-color="#F36414"/>
</linearGradient>
<linearGradient id="paint6_linear_40_974" x1="6.30467" y1="6.70117" x2="6.30467" y2="10.9785" gradientUnits="userSpaceOnUse">
<stop stop-color="#F39B14"/>
<stop offset="1" stop-color="#F36414"/>
</linearGradient>
</defs>
</svg>
